<?xml version="1.0" encoding="UTF-8"?>
<svg id="_圖層_1" data-name="圖層_1" xmlns="http://www.w3.org/2000/svg" version="1.1" viewBox="0 0 384 384">
  <!-- Generator: Adobe Illustrator 29.8.3, SVG Export Plug-In . SVG Version: 2.1.1 Build 3)  -->
  <defs>
    <style>
      .st0 {
        fill: #fff;
      }
    </style>
  </defs>
  <path d="M180.24,45.88c63.23-3.92,137.47,26.54,159.61,89.97,26.79,76.75-37.18,128.93-92.6,167.92-14.49,10.2-37.64,26.9-53.62,33.21-23.51,9.29-12.05-13.62-11.7-26.67.09-3.55-.14-8.23-2.65-10.89-4.88-5.17-30.62-8.33-39.3-10.85-64.52-18.79-118.01-78.65-96.01-149.16,17.67-56.61,79.85-90.03,136.28-93.52ZM149.94,136.46c-1.18,1.27-1.61,3.63-1.77,5.35-1.82,19.96,1.45,42.67.02,62.93,1.06,8.94,14.61,8.97,15.67-.08-1.51-19.88,2.26-43.36.07-62.81-.81-7.2-9.2-10.55-13.99-5.38ZM264.23,150.46h22.83c.68,0,4.16-1.9,4.9-2.58,4.6-4.22,2.16-11.99-3.76-13.53-4.27-1.11-27.47-.94-32.58-.35-4.31.49-7.84,3.21-7.9,7.82,1.46,20.02-1.82,42.48,0,62.2.46,5.02,3.26,6.92,8.09,7.63,6.21.91,24.09.9,30.3,0,5.61-.82,8.96-3.89,8.02-9.86-.38-2.37-4.03-6.41-6.32-6.41h-23.58v-14.22h22.83c6.15,0,9.93-8.27,5.97-13.46-.55-.72-4-3.01-4.48-3.01h-24.33v-14.22ZM135.11,196.12c-6.48-1.39-17.67,1.03-24.7,0l-1.12-1.12v-55.39c0-.85-2.89-3.87-3.94-4.3-4.83-1.97-10.2.19-11.63,5.2,1.14,20.38-2.04,43.44-.19,63.5.33,3.55,2.67,7.18,6.44,7.78,4.78.76,29.7.78,34.22-.13,7.86-1.58,7.38-14.16.92-15.55ZM220.82,179.65l-32.16-43.07c-7.94-5.03-12.81-.13-13.53,8.24-1.61,18.75,1.09,39.96.22,58.97.29,7.82,10.3,11.26,14.77,4.68.36-.53,1.5-2.65,1.5-2.99v-39.3l31.14,42.59c5.34,5.14,13.6,3.04,14.54-4.77l-.19-62.72c-1.28-6.3-9.85-8.72-14.08-3.94-.62.7-2.22,4.6-2.22,5.27v37.05Z"/>
  <path class="st0" d="M220.82,179.65v-37.05c0-.67,1.59-4.56,2.22-5.27,4.23-4.78,12.8-2.36,14.08,3.94l.19,62.72c-.94,7.82-9.2,9.91-14.54,4.77l-31.14-42.59v39.3c0,.34-1.14,2.46-1.5,2.99-4.47,6.57-14.48,3.13-14.77-4.68.87-19-1.83-40.21-.22-58.97.72-8.37,5.59-13.27,13.53-8.24l32.16,43.07Z"/>
  <path class="st0" d="M264.23,150.46v14.22h24.33c.48,0,3.93,2.29,4.48,3.01,3.96,5.19.18,13.46-5.97,13.46h-22.83v14.22h23.58c2.29,0,5.95,4.04,6.32,6.41.95,5.97-2.41,9.05-8.02,9.86-6.21.9-24.09.91-30.3,0-4.83-.71-7.63-2.61-8.09-7.63-1.82-19.72,1.46-42.18,0-62.2.05-4.61,3.59-7.33,7.9-7.82,5.11-.58,28.31-.76,32.58.35,5.91,1.54,8.36,9.31,3.76,13.53-.75.68-4.23,2.58-4.9,2.58h-22.83Z"/>
  <path class="st0" d="M135.11,196.12c6.46,1.39,6.94,13.97-.92,15.55-4.52.91-29.44.89-34.22.13-3.77-.6-6.11-4.24-6.44-7.78-1.85-20.06,1.33-43.13.19-63.5,1.43-5.01,6.8-7.17,11.63-5.2,1.05.43,3.94,3.45,3.94,4.3v55.39l1.12,1.12c7.04,1.03,18.22-1.39,24.7,0Z"/>
  <path class="st0" d="M149.94,136.46c4.79-5.17,13.18-1.82,13.99,5.38,2.19,19.45-1.58,42.93-.07,62.81-1.06,9.05-14.61,9.02-15.67.08,1.43-20.26-1.84-42.97-.02-62.93.16-1.71.59-4.08,1.77-5.35Z"/>
</svg>